<!-- Generated by IcoMoon.io -->
<svg version="1.1" xmlns="http://www.w3.org/2000/svg" width="32" height="32" viewBox="0 0 32 32">
<path fill="#4d5ae5" d="M14.926 14.966h1.066v4.797h-1.066v-4.797zM19.191 17.098h1.066v2.665h-1.066v-2.665zM10.661 18.697h1.066v1.066h-1.066v-1.066zM7.463 18.164h1.067v1.599h-1.067v-1.599z"></path>
<path fill="#2e2f42" d="M1.599 28.292h25.588c0 0 0 0 0 0 0.883 0 1.599-0.716 1.599-1.599v0-2.133c0-0.883-0.716-1.599-1.599-1.599-0 0-0 0-0.001 0h-0.533v-13.294l3.028-2.868c0.207 0.105 0.452 0.166 0.711 0.166 0.888 0 1.608-0.72 1.608-1.608s-0.72-1.608-1.608-1.608c-0.888 0-1.608 0.72-1.608 1.608 0 0.247 0.055 0.48 0.155 0.689l-0.004-0.010-2.282 2.163v-1.23c0-0.883-0.716-1.599-1.599-1.599v0h-21.323c-0 0-0 0-0.001 0-0.883 0-1.599 0.716-1.599 1.599 0 0 0 0 0 0.001v-0 15.992h-0.533c-0.883 0-1.599 0.716-1.599 1.599 0 0 0 0 0 0.001v-0 2.133c0 0.883 0.716 1.599 1.599 1.599v0zM30.385 4.837c0.295 0 0.533 0.239 0.533 0.533s-0.239 0.533-0.533 0.533v0c-0.295 0-0.533-0.239-0.533-0.533s0.239-0.533 0.533-0.533v0zM3.199 6.969c0-0.295 0.239-0.534 0.533-0.534h21.323c0.294 0 0.533 0.239 0.533 0.534v2.239l-1.066 1.013v-2.186c0-0.295-0.238-0.533-0.533-0.533h-19.191c-0.295 0-0.533 0.239-0.533 0.533v13.327c0 0.295 0.239 0.534 0.533 0.534h19.191c0.294 0 0.533-0.239 0.533-0.534v-9.674l1.066-1.010v12.284h-22.389v-15.992zM7.996 13.899c-0.001 0-0.003 0-0.005 0-0.883 0-1.599 0.716-1.599 1.599s0.716 1.599 1.599 1.599c0.432 0 0.824-0.171 1.112-0.45l-0 0 1.853 0.93c0.215 0.108 0.477 0.057 0.637-0.123l3.939-4.432 3.872 2.902c0.208 0.155 0.498 0.139 0.686-0.040l3.365-3.188v8.131h-18.124v-12.261h18.125v2.66l-3.772 3.572-3.905-2.928c-0.088-0.066-0.199-0.106-0.319-0.106-0.158 0-0.3 0.069-0.398 0.178l-0 0.001-3.993 4.493-1.493-0.747c0.011-0.064 0.018-0.129 0.021-0.194-0-0.883-0.716-1.599-1.599-1.599h-0zM8.529 15.498c0 0.295-0.239 0.533-0.533 0.533s-0.533-0.239-0.533-0.533v0c0-0.295 0.239-0.533 0.533-0.533s0.533 0.239 0.533 0.533v0zM11.727 24.027h5.331v0.533c0 0.294-0.238 0.533-0.533 0.533h-4.265c-0.294 0-0.533-0.239-0.533-0.533v0-0.533zM1.066 24.561c0-0.294 0.239-0.533 0.533-0.533h9.062v0.533c0 0 0 0 0 0 0 0.883 0.716 1.599 1.599 1.599h4.265c0.883 0 1.599-0.716 1.599-1.599 0-0 0-0 0-0.001v0-0.533h9.061c0.295 0 0.534 0.238 0.534 0.533v2.133c0 0.294-0.239 0.533-0.534 0.533h-25.587c-0.294 0-0.533-0.239-0.533-0.533v0-2.133z"></path>
</svg>
