<!-- Generated by IcoMoon.io -->
<svg version="1.1" xmlns="http://www.w3.org/2000/svg" width="32" height="32" viewBox="0 0 32 32">
<path fill="#f4f4fd" d="M31.989 9.414c-0.074-1.701-0.35-2.872-0.744-3.885-0.424-1.112-1.054-2.060-1.85-2.838l-0.001-0.001c-0.78-0.792-1.725-1.42-2.78-1.827l-0.054-0.018c-1.021-0.394-2.181-0.67-3.883-0.745-1.717-0.080-2.263-0.1-6.606-0.1-4.349 0-4.893 0.020-6.6 0.094-1.701 0.074-2.87 0.35-3.883 0.745-1.113 0.424-2.061 1.054-2.841 1.85l-0.001 0.001c-0.792 0.78-1.42 1.725-1.827 2.78l-0.018 0.054c-0.394 1.021-0.668 2.181-0.745 3.883-0.080 1.715-0.1 2.261-0.1 6.606 0 4.349 0.020 4.893 0.094 6.6 0.074 1.701 0.35 2.872 0.745 3.885 0.406 1.077 1.039 2.039 1.851 2.842 0.801 0.811 1.771 1.443 2.834 1.843 1.021 0.394 2.181 0.67 3.885 0.744 1.707 0.076 2.251 0.094 6.6 0.094 4.347 0 4.891-0.020 6.598-0.094 1.701-0.074 2.872-0.35 3.885-0.744 2.158-0.85 3.834-2.526 4.666-4.628l0.019-0.055c0.394-1.021 0.67-2.185 0.744-3.887 0.076-1.707 0.094-2.251 0.094-6.598 0-4.349-0.006-4.893-0.080-6.6zM29.107 22.487c-0.070 1.565-0.332 2.41-0.552 2.972-0.551 1.401-1.639 2.49-3.004 3.029l-0.036 0.013c-0.562 0.218-1.413 0.48-2.97 0.548-1.689 0.076-2.195 0.094-6.468 0.094s-4.785-0.020-6.468-0.094c-1.565-0.068-2.41-0.33-2.972-0.55-0.721-0.269-1.336-0.677-1.838-1.194l-0.001-0.001c-0.517-0.504-0.924-1.118-1.183-1.805l-0.011-0.034c-0.22-0.562-0.48-1.413-0.55-2.97-0.074-1.689-0.094-2.197-0.094-6.468 0-4.273 0.020-4.785 0.094-6.468 0.070-1.565 0.332-2.408 0.55-2.972 0.256-0.694 0.664-1.325 1.201-1.839 0.52-0.53 1.145-0.939 1.841-1.195 0.56-0.22 1.413-0.48 2.97-0.55 1.689-0.074 2.195-0.094 6.468-0.094 4.279 0 4.783 0.020 6.468 0.094 1.563 0.070 2.408 0.332 2.97 0.55 0.694 0.256 1.327 0.664 1.841 1.195 0.53 0.52 0.937 1.145 1.193 1.841 0.22 0.56 0.482 1.413 0.55 2.97 0.076 1.689 0.094 2.195 0.094 6.468s-0.018 4.773-0.092 6.462z"></path>
<path fill="#f4f4fd" d="M16.070 7.787c-4.465 0.102-8.046 3.745-8.046 8.225s3.581 8.124 8.036 8.225l0.009 0c4.465-0.102 8.046-3.745 8.046-8.225s-3.581-8.124-8.036-8.225l-0.009-0zM16.070 21.35c-2.948 0-5.337-2.39-5.337-5.337s2.39-5.337 5.337-5.337v0c2.948 0 5.337 2.39 5.337 5.337s-2.39 5.337-5.337 5.337v0zM26.541 7.463c0 1.061-0.86 1.921-1.921 1.921s-1.921-0.86-1.921-1.921v0c0-1.061 0.86-1.921 1.921-1.921s1.921 0.86 1.921 1.921v0z"></path>
</svg>
