<!-- Generated by IcoMoon.io -->
<svg version="1.1" xmlns="http://www.w3.org/2000/svg" width="32" height="32" viewBox="0 0 32 32">
<path fill="#f4f4fd" d="M32.013 32.021h0.008v-11.748c0-5.744-1.237-10.171-7.953-10.171-3.228 0-5.395 1.773-6.28 3.452h-0.094v-2.914h-6.366v21.38h6.632v-10.587c0-2.788 0.528-5.484 3.979-5.484 3.402 0 3.452 3.182 3.452 5.664v10.407h6.624zM0.528 10.643h6.638v21.378h-6.638v-21.378zM3.845 0c-2.121 0-3.842 1.721-3.842 3.842s1.721 3.883 3.842 3.883c2.123 0 3.846-1.761 3.846-3.883s-1.727-3.842-3.849-3.842z"></path>
</svg>
