<!-- Generated by IcoMoon.io -->
<svg version="1.1" xmlns="http://www.w3.org/2000/svg" width="32" height="32" viewBox="0 0 32 32">
<path fill="#f4f4fd" d="M32.021 6.082c-1.1 0.494-2.377 0.858-3.714 1.030l-0.068 0.007c1.361-0.817 2.383-2.080 2.875-3.582l0.013-0.046c-1.198 0.723-2.593 1.275-4.079 1.575l-0.084 0.014c-1.201-1.28-2.903-2.077-4.791-2.077-3.625 0-6.564 2.939-6.564 6.564v0c0 0.52 0.044 1.021 0.152 1.497-5.472-0.276-10.285-2.88-13.504-6.833l-0.027-0.034c-0.563 0.949-0.896 2.092-0.896 3.313 0 2.266 1.146 4.264 2.89 5.446l0.023 0.015c-1.093-0.030-2.11-0.325-2.999-0.823l0.033 0.017v0.072c0.004 3.166 2.238 5.809 5.216 6.443l0.043 0.008c-0.501 0.137-1.076 0.216-1.67 0.216-0.018 0-0.036-0-0.054-0l0.003 0c-0.031 0.001-0.067 0.001-0.103 0.001-0.403 0-0.797-0.041-1.177-0.119l0.038 0.006c0.874 2.625 3.276 4.499 6.125 4.573l0.009 0c-2.216 1.746-5.047 2.8-8.125 2.8-0.005 0-0.010 0-0.015 0h0.001c-0.538 0-1.055-0.024-1.571-0.090 2.828 1.847 6.291 2.946 10.010 2.946 0.021 0 0.042-0 0.064-0h-0.003c12.080 0 18.684-10.006 18.684-18.68 0-0.29-0.010-0.57-0.024-0.849 1.3-0.938 2.392-2.068 3.26-3.361l0.030-0.047z"></path>
</svg>
